<?xml version="1.0" standalone="no"?>
<!DOCTYPE svg PUBLIC "-//W3C//DTD SVG 20010904//EN"
 "http://www.w3.org/TR/2001/REC-SVG-20010904/DTD/svg10.dtd">
<svg version="1.0" xmlns="http://www.w3.org/2000/svg"
 width="1459.000000pt" height="1459.000000pt" viewBox="0 0 1459.000000 1459.000000"
 preserveAspectRatio="xMidYMid meet">
<metadata>
Created by potrace 1.14, written by Peter Selinger 2001-2017
</metadata>
<g transform="translate(0.000000,1459.000000) scale(0.100000,-0.100000)"
fill="#000000" stroke="none">
<path d="M0 7295 l0 -7295 7295 0 7295 0 0 7295 0 7295 -7295 0 -7295 0 0
-7295z m11688 4212 c-2 -8 -169 -257 -373 -555 l-369 -542 -3652 0 -3651 0
-372 544 c-204 300 -371 549 -371 555 0 8 1294 11 4396 11 3663 0 4395 -2
4392 -13z m-4738 -2377 l0 -780 -545 0 -545 0 0 275 0 275 -375 0 -375 0 0
-337 1 -338 919 -685 920 -685 0 -1092 0 -1093 -1500 0 -1500 0 0 820 0 820
560 0 560 0 0 -315 0 -315 340 0 340 0 0 408 0 408 -900 673 -900 673 0 1034
0 1034 1500 0 1500 0 0 -780z m3540 -1477 l0 -2258 -413 -362 -412 -363 -1082
0 -1083 0 0 820 0 820 590 0 590 0 0 -315 0 -315 315 0 315 0 0 1565 0 1565
-905 0 -905 0 0 550 0 550 1495 0 1495 0 0 -2257z m890 -4015 c168 -298 306
-547 308 -555 3 -11 -745 -13 -4393 -13 -3538 0 -4396 2 -4393 13 2 7 169 256
373 555 l370 542 3715 0 3715 0 305 -542z"/>
</g>
</svg>
